<?xml version="1.0" encoding="utf-8"?><!DOCTYPE svg PUBLIC "-//W3C//DTD SVG 1.1//EN" "http://www.w3.org/Graphics/SVG/1.1/DTD/svg11.dtd"><svg xmlns="http://www.w3.org/2000/svg" xmlns:xlink="http://www.w3.org/1999/xlink"><symbol viewBox="0 0 18 18" id="icon-rating-star"><path d="M13.52 11.75l1.105 5.814c.02.146-.042.29-.167.375-.062.04-.146.06-.208.06s-.146-.02-.208-.06L9 14.686l-5.042 3.25c-.125.084-.292.084-.417 0-.123-.082-.186-.23-.165-.375L4.48 11.75.103 7.397C0 7.292-.02 7.127.02 6.98c.063-.146.21-.23.355-.23h5.75l2.52-6.5C8.71.104 8.855 0 9 0s.292.104.354.25l2.52 6.5h5.75c.147 0 .293.083.355.23.04.145.02.312-.085.416L13.52 11.75z"/></symbol><symbol viewBox="0 0 1000 283.084" id="instagram-logo"><g transform="translate(1239.938 -1935.853)"><path d="M-17.59-596.388c-8.358 0-28.84-6.285-28.84-31.786 0-35.642 37.25-76.218 48.83-88.746l29.546-31.188v31.062c0 103.064-27.468 120.658-49.535 120.658zM395.727-899.126c0-60.138 15.91-113.137 50.003-113.137 20.055 0 40.406 18.317 40.406 83.21 0 81.71-29.766 119.704-52.654 119.704-21.46 0-37.755-30.282-37.755-89.776z" fill="none" stroke="#000" stroke-width=".25"/><path d="M-1136.01-721.047c-4.494 0-6.82-1.385-6.82-6.818 0-12.364 15.13-33.25 15.13-85.768l2.297-335.97c0-6.118-.602-8.082-3.03-8.082-2.447 0-10.63 8.4-14.25 12.297-19.638 21.526-43.33 68.576-43.33 119.907 0 24.62 4.03 42.87 16.542 61.997 3.02 4.097 6.06 8.088 6.06 12.88 0 6.112-3.83 8.46-8.334 8.46-13.664 0-67.68-23.983-67.68-87.505 0-44.702 30.905-100.397 65.028-130.69 15.52-14.32 41.83-35.86 62.125-35.86 15.756 0 27.9 5.38 38.51 12.123 7.262 4.714 9.408 8.015 9.408 15.657v282.338c0 72.418-4.55 97.52-23.17 129.678-6.004 9.454-27.22 35.355-48.488 35.355zM-26.53-808.85c28.47 0 51.91-44.885 51.91-123.738 0-52.307-11.58-79.297-37.754-79.297-39.89 0-52.126 76.967-52.126 114.497-1.1 58.692 19.797 88.537 37.97 88.537zm-93.72-46.288c-11.726-84.34 12.177-203.087 90.054-203.087 28.575 0 47.115 17.826 55.576 32.83-.992-9.887-2.204-23.108 16.29-23.108 12.76 0 22.878 3.086 29.09 5.77 11.748 4.558 13.335 8.308 13.335 14.307l-2.65 184.48c31.5-45.565 52.888-86.33 66.037-141.17-10.13-6.608-17.804-18.908-17.804-32.198 0-29.61 17.86-46.972 42.174-46.972 19.89 0 27.906 10.696 27.906 27.78.155 7.167-2.02 16.288-2.02 16.288 19.137-2.782 56.476-11.238 66.543-11.238 20.09 0 31.442 10.963 31.442 28.284 0 14.898-18.56 69.835-18.56 118.567 0 48.588 12.62 76.645 32.45 76.645 15.718 0 27.106-17.762 31.946-39.522 0 0-6.335-26.056-5.81-52.276 0-93.5 40.33-157.836 93.82-157.836 26.645 0 41.733 11.286 56.82 31.694-2.777-15.775 1.935-22.35 15.658-22.35 10.933 0 19.47 1.686 30.226 5.96 7.524 3.33 12.705 6.63 12.705 14.496l-3.283 124.5c0 76.612 8.43 94.955 26.517 94.955 22.04 0 37.585-48.494 41.417-68.815l1.075-165.98c0-4.902 3.107-9.414 8.793-9.414 7.814 0 17.013 2.07 36.828 6.622 7.992 1.604 10.76 7.552 10.76 12.104l-.208 97.347c14.51-42.538 24.176-76.246 38.174-102.106 4.423-8.015 7.09-14.07 19.447-14.07 9.955 0 18.12 2.49 27.975 6.58 20.285 8.858 22.612 22.55 22.612 32.11-.043 31.637 1.84 78.503 5.483 117.417.132 1.85 1.922 1.555 2.173.104 7.01-55.028 33.145-122.713 40.966-139.97 4.165-9.606 9.756-16.137 21.31-16.137 12.46 0 32.822 8.717 40.864 13.346 11.978 6.852 15.207 16.134 15.207 23.897l-3 93.83c0 36.46 1.005 80.16 13.476 99.175 2.835 4.748 7.784 12.435 17.556 12.435 8.31 0 15.34-7.253 20.042-19.677 4.915-13.018 7.518-24.285 10.688-37.445 1.302-6.076 4.56-10.102 10.014-10.102 9.946 0 9.875 9.878 9.875 15.947 0 15.676-7.038 43.34-14.558 57.715-9.23 18.497-27.904 29.992-48.5 29.992-11.083 0-19.732-3.31-25.894-6.73-40.253-24.472-46.085-75.37-46.085-155.956l1.193-49.08c.052-1.728-1.59-1.622-2.172-.31-21.268 44.326-42.518 110.254-42.518 178.35.145 3.832-1.032 5.9-3.414 7.758-2.354 1.99-11.54 5.173-19.035 5.173-15.98 0-26.663-8.11-33.57-19.242-13.99-23.34-17.554-113.492-19.81-166.762-.147-3.117-3.604-3.814-5.018-1.24-15.717 24.895-27.12 60.673-34.67 92.274-7.11 31.748-7.85 71.29-7.85 96.315 0 15.17-5.03 19.966-28.24 19.966-8.9 0-18.818-2.145-30.105-6.414-3.435-1.253-7.286-4.3-7.603-9.104-.27-9.285-.628-19.193-.876-28.48-12.112 28.864-27.49 44.19-54.043 44.19-35.54 0-57.654-28.985-60.357-55.307-17.832 34.737-47.042 55.432-81.19 55.432-27.453 0-48.85-13.187-63.388-41.542-6.165 16.12-25.607 41.67-56.568 41.67-15.833 0-30.872-5.277-45.995-20.933-17.395-18.686-29.514-41.556-29.514-94.1 0-31.803 5.828-63.725 12.5-91.923 1.024-4.288 1.39-7.192-5.964-6.7l-37.976 1.017c-17.43 53.77-56.553 129.75-106.57 184.732l1.64 69.574c0 46.254-7.065 93.59-23.786 118.697-13.287 19.406-37.52 42.55-74.072 42.55-35.166 0-75.13-24.35-75.13-66.67 0-33.274 22.898-63.305 44.446-84.223l74.246-68.437-.883-27.527c-7.95 18.914-41.226 44.952-69.32 44.952-50.02 0-67.31-46.51-67.31-46.51-13.348 28.155-33.677 45.247-55.987 45.247-35.54 0-57.654-28.985-60.357-55.307-17.832 34.737-47.042 55.432-81.19 55.432-27.453 0-49.557-13.01-64.095-41.365-10.562-21.716-11.917-32.305-11.917-32.305-13.906 40.825-44.505 74.24-70.96 74.24-40.332 0-66.19-37.894-70.625-102.795-23.17 54.682-61.767 104.033-133.72 104.033-48.743 0-75.887-17.602-75.887-30.052 0-13.18 15.42-36.415 27.452-36.415 14.49 0 28.19 22.628 49.65 22.628 17.163 0 28.46-17.466 28.46-35.33 0-28.743-24.974-52.36-60.736-82.833l-55.18 92.303c-17.205 27.835-48.72 69.07-80.81 69.07-32.702 0-42.807-34.293-42.807-100.006 0-36.948 5.682-127.28 5.682-127.28.59-5.537-2.307-6.933-6.06-3.03-35.986 40.237-56.863 93.033-74.475 159.78-6.023 22.612-10.472 45.138-10.935 54.448-.333 14.076-5.75 16.087-22.678 16.087-30.578 0-37.05-8.616-37.05-60.147l.18-57.157 1.326-148.164c0-10.484 1.2-14.786 11.174-14.786 11.936 0 25.394 4.456 34.535 8.334 7.046 2.995 9.297 6.41 8.9 15.215l-1.287 123.516c11.614-35.89 19.824-60.64 35.042-89.99 14.708-28.317 36.166-57.265 67.64-57.265 14.157 0 27.914 9.966 39.042 17.097 12.094 8.427 13.612 17.02 13.612 26.34-1.39 40.66-4.168 83.02-4.168 121.976 0 46.89 3.607 59.095 11.365 59.095 10.516 0 28.275-27.626 38.79-45.66 13.914-23.544 32.665-56.635 45.91-81.77-9.595-9.766-15.884-22.535-15.884-36.72 0-38.915 33.22-65.155 61.872-65.155 20.298 0 31.19 7.307 31.19 24.623 0 22.334-19.534 48.787-31.064 62.124l55.004 41.366c22.53 16.843 39.42 40.634 39.42 66.897.146 9.28-2.474 18.12-2.474 18.12 30.4-29.29 47.553-64.51 47.553-91.66l.177-127.985-60.988-1.768c-4.004 0-8.485-1.047-8.485-10.96 0-12.17 2.625-19.48 7.6-28.815 1.556-3.125 3.166-4.246 6.72-4.154l58.6 2.033 2.21-66.997c.47-16.18 4.758-21.39 14.76-21.39 11.273 0 29.05 5.467 43.576 11.136 4.815 2.152 7.47 5.045 7.248 9.457l-3.18 69.827 74.953 4.508c9.704.543 11.225 3.303 11.225 10.87 0 8.39-1.672 13.058-5.127 20.066-1.33 2.416-3.39 6.33-6.98 6.364l-75.22 1.237s-5.242 130.283-5.303 168.556c0 56.15 12.777 78.135 24.75 78.135 21.548 0 52.272-54.465 52.272-90.158 0-93.5 40.857-152.356 94.347-152.356 26.646 0 41.735 11.286 56.822 31.694-2.78-15.775 1.933-22.35 15.656-22.35 10.933 0 19.47 1.686 30.226 5.96 7.524 3.33 12.705 6.63 12.705 14.496l-3.283 124.5c0 76.612 8.43 94.955 26.517 94.955 22.682 0 32.72-36.515 32.72-46.798z" fill="none" stroke="#000" stroke-width=".145"/><path d="M-326.523-899.126c0-60.138 15.91-113.137 50.003-113.137 20.055 0 40.406 18.317 40.406 83.21 0 81.71-29.766 119.704-52.654 119.704-21.46 0-37.755-30.282-37.755-89.776z" fill="none" stroke="#000" stroke-width=".25"/><path d="M-1182.196 1936.353c-9.136 0-20.98 9.688-27.967 16.136-15.36 13.635-29.275 38.706-29.275 58.83 0 28.595 24.32 39.39 30.47 39.39 2.03 0 3.757-1.047 3.757-3.8 0-2.156-1.37-3.95-2.73-5.795-5.632-8.61-7.442-16.827-7.442-27.91 0-23.108 10.657-44.287 19.498-53.978 1.63-1.754 5.313-5.543 6.415-5.543 1.094 0 1.365.89 1.365 3.644l-1.027 151.24c0 23.643-6.822 33.037-6.822 38.603 0 2.447 1.057 3.082 3.08 3.082 9.575 0 19.117-11.67 21.82-15.925 8.382-14.477 10.437-25.78 10.437-58.38v-127.088c0-3.44-.965-4.927-4.234-7.05-4.777-3.034-10.253-5.457-17.346-5.457zm273.742.422c-4.503 0-6.428 2.353-6.64 9.636l-1 30.162-26.375-.914c-1.6-.04-2.324.464-3.024 1.87-2.24 4.203-3.418 7.493-3.418 12.97 0 4.464 2.023 4.94 3.826 4.94l27.446.787-.084 57.62c0 12.222-7.712 28.077-21.397 41.26 0 0 1.175-3.98 1.11-8.158 0-11.823-7.61-22.536-17.753-30.12l-24.76-18.624c5.19-6.004 13.984-17.913 13.984-27.967 0-7.795-4.9-11.07-14.04-11.07-12.897 0-27.853 11.812-27.853 29.33 0 6.386 2.84 12.134 7.16 16.53-5.962 11.315-14.4 26.202-20.665 36.8-4.733 8.118-12.738 20.553-17.472 20.553-3.492 0-5.106-5.495-5.106-26.602 0-17.538 1.246-36.603 1.87-54.907 0-4.193-.69-8.064-6.133-11.858-5.008-3.21-11.196-7.695-17.57-7.695-14.167 0-23.82 13.04-30.44 25.786-6.852 13.212-10.557 24.345-15.785 40.5l.576-55.594c.18-3.965-.82-5.504-3.994-6.852-4.115-1.746-10.17-3.756-15.545-3.756-4.49 0-5.035 1.934-5.035 6.654l-.605 66.71-.07 25.728c0 23.198 2.905 27.067 16.67 27.067 7.62 0 10.064-.894 10.214-7.23.208-4.19 2.212-14.34 4.923-24.52 7.93-30.048 17.325-53.815 33.524-71.928 1.69-1.757 2.995-1.128 2.73 1.365 0 0-2.56 40.665-2.56 57.297 0 29.582 4.55 45.017 19.272 45.017 14.446 0 28.633-18.558 36.38-31.09l24.842-41.555c16.1 13.718 27.334 24.354 27.334 37.294 0 8.04-5.075 15.91-12.802 15.91-9.66 0-15.83-10.186-22.353-10.186-5.416 0-12.366 10.454-12.366 16.39 0 5.603 12.228 13.532 34.17 13.532 32.39 0 49.766-22.23 60.196-46.845 1.997 29.217 13.637 46.283 31.793 46.283 11.91 0 25.673-15.046 31.934-33.425 0 0 .618 4.77 5.373 14.546 6.545 12.765 16.495 18.626 28.853 18.626 15.372 0 28.52-9.32 36.548-24.956 1.217 11.85 11.165 24.9 27.164 24.9 10.044 0 19.2-7.695 25.21-20.37 0 0 7.785 20.932 30.3 20.932 12.65 0 27.625-11.714 31.203-20.23l.395 12.38-33.41 30.81c-9.7 9.415-20.02 22.947-20.02 37.925 0 19.052 17.99 30.008 33.82 30.008 16.455 0 27.373-10.425 33.354-19.16 7.527-11.303 10.705-32.608 10.705-53.43l-.746-31.314c22.516-24.75 40.138-58.962 47.984-83.168l17.092-.45c3.31-.222 3.148 1.08 2.687 3.01-3.004 12.694-5.627 27.07-5.627 41.387 0 23.653 5.45 33.946 13.28 42.358 6.808 7.05 13.58 9.426 20.708 9.426 13.938 0 22.687-11.51 25.462-18.766 6.545 12.765 16.185 18.71 28.543 18.71 15.372 0 28.52-9.32 36.547-24.956 1.217 11.85 11.165 24.9 27.165 24.9 11.953 0 18.884-6.9 24.337-19.892.11 4.18.27 8.636.393 12.816.143 2.162 1.87 3.53 3.418 4.093 5.082 1.924 9.542 2.885 13.548 2.885 10.45 0 12.717-2.146 12.717-8.975 0-11.265.33-29.065 3.53-43.356 3.4-14.226 8.527-30.335 15.602-41.542.637-1.158 2.2-.855 2.265.55 1.016 23.98 2.62 64.57 8.92 75.078 3.108 5.01 7.915 8.665 15.108 8.665 3.374 0 7.507-1.44 8.567-2.335 1.072-.836 1.613-1.764 1.547-3.49 0-30.653 9.56-60.33 19.132-80.283.262-.59 1.008-.638.985.14l-.533 22.087c0 36.277 2.615 59.195 20.735 70.212 2.774 1.54 6.673 3.024 11.662 3.024 9.27 0 17.68-5.178 21.833-13.505 3.386-6.47 6.556-18.926 6.556-25.983 0-2.73.032-7.174-4.445-7.174-2.456 0-3.93 1.808-4.516 4.544-1.427 5.924-2.6 11.007-4.81 16.867-2.118 5.592-5.277 8.847-9.02 8.847-4.398 0-6.628-3.46-7.905-5.6-5.614-8.558-6.063-28.222-6.063-44.635l1.35-42.245c0-3.495-1.458-7.678-6.85-10.762-3.62-2.084-12.777-6.007-18.387-6.007-5.202 0-7.72 2.948-9.594 7.273-3.52 7.77-15.287 38.24-18.443 63.01-.113.653-.925.79-.984-.042-1.64-17.518-2.482-38.625-2.462-52.866 0-4.304-1.053-10.46-10.185-14.448-4.438-1.84-8.11-2.968-12.592-2.968-5.563 0-6.758 2.722-8.75 6.33-6.3 11.642-10.658 26.825-17.19 45.973l.098-43.82c0-2.05-1.256-4.737-4.853-5.46-8.92-2.05-13.054-2.982-16.572-2.982-2.56 0-3.966 2.042-3.966 4.25l-.478 74.712c-1.725 9.148-8.72 30.977-18.64 30.977-8.142 0-11.943-8.25-11.943-42.738l1.477-56.046c0-3.54-2.325-5.03-5.712-6.528-4.842-1.923-8.696-2.686-13.617-2.686-6.177 0-8.298 2.957-7.047 10.058-6.792-9.187-13.58-14.265-25.575-14.265-24.08 0-42.23 28.966-42.23 71.056-.238 11.802 2.615 23.534 2.615 23.534-2.18 9.796-7.3 17.782-14.377 17.782-8.927 0-14.616-12.62-14.616-34.494 0-21.938 8.356-46.68 8.356-53.387 0-7.797-5.11-12.73-14.152-12.73-4.532 0-21.335 3.81-29.95 5.063 0 0 .97-4.102.9-7.33 0-7.69-3.608-12.505-12.562-12.505-10.945 0-18.977 7.814-18.977 21.143 0 5.983 3.445 11.515 8.004 14.49-5.92 24.688-15.544 43.047-29.726 63.558l1.196-83.056c0-2.7-.718-4.376-6.007-6.43-2.796-1.207-7.353-2.6-13.097-2.6-8.324 0-7.776 5.944-7.33 10.395-3.808-6.754-12.148-14.77-25.01-14.77-35.06 0-45.823 53.458-40.544 91.425 0 4.628-4.52 21.06-14.73 21.06-8.14 0-11.943-8.25-11.943-42.74l1.49-56.044c0-3.54-2.338-5.03-5.725-6.528-4.842-1.923-8.682-2.686-13.603-2.686-6.178 0-8.3 2.957-7.048 10.058-6.792-9.187-13.594-14.265-25.59-14.265-24.08 0-42.47 26.49-42.47 68.58 0 16.068-13.834 40.585-23.535 40.585-5.39 0-11.128-9.892-11.128-35.17.027-17.228 2.377-75.88 2.377-75.88l33.86-.548c1.617-.015 2.552-1.782 3.15-2.87 1.557-3.155 2.308-5.256 2.308-9.032 0-3.407-.68-4.65-5.05-4.895l-33.748-2.026 1.435-31.44c.1-1.987-1.097-3.28-3.264-4.25-6.538-2.552-14.55-5.022-19.623-5.022zm102.483 82.38c9.027 0 18.188 8.235 18.188 37.448 0 36.782-13.4 53.893-23.704 53.893-9.66 0-16.993-13.634-16.993-40.416 0-27.072 7.162-50.925 22.51-50.925zm325.13 0c9.03 0 18.19 8.235 18.19 37.448 0 36.782-13.4 53.893-23.704 53.893-9.66 0-16.994-13.634-16.994-40.416 0-27.072 7.16-50.925 22.508-50.925zm-206.217.17c11.782 0 16.994 12.142 16.994 35.69 0 35.495-10.55 55.707-23.367 55.707-8.18 0-17.588-13.433-17.092-39.854 0-16.895 5.508-51.544 23.465-51.544zm19.948 118.744v13.982c0 46.396-12.363 54.315-22.297 54.315-3.762 0-12.984-2.84-12.984-14.32 0-16.045 16.774-34.3 21.987-39.938l13.294-14.04z" fill="#3f5d87"/></g></symbol><symbol viewBox="-2.45 -2.534 624 161" id="pinterest-logo"><path fill="#CB2027" d="M142.26 55.254c6.722 0 13.172-5.597 14.294-12.502 1.327-6.72-3.23-12.318-9.95-12.318-6.72 0-13.17 5.597-14.308 12.318-1.31 6.905 3.06 12.502 9.963 12.502zM598.482 75.23h15.04c2.06 0 3.267-.836 3.732-2.76.664-2.768 1.874-7.6 2.22-8.92.445-1.73-.563-3.043-2.482-3.043h-14.84c1.07-4.253 5.23-18.06 5.23-27.063 0-17.978-15.264-33.27-36.925-33.27-24.463 0-40.378 16.417-40.378 39.518 0 6.738 2.512 14.592 5.63 19.464-1.303-.075-2.645-.114-4.03-.114-18.587 0-30.295 10.083-30.295 24.755 0 13.77 10.856 19.12 21.076 22.68 9.08 3.165 17.438 4.637 17.438 11.73 0 4.78-4.6 7.587-13.6 7.587-10.682 0-16.552-5.03-18.045-6.938 1.012-.796 2.517-2.688 2.517-5.842 0-4.412-3.098-8.013-8.855-8.013-4.87 0-8.988 3.973-10.02 9.198-7.823 6.4-16.36 10.546-28.468 10.546-11.92 0-18.11-6.2-18.11-19.396 2.795.85 10.073 1.873 14.883 1.873 20.186 0 33.945-9.17 33.945-27.54 0-9.876-8.67-20.25-25.825-20.25h-.04c-22.562 0-35.2 14.293-40.717 30.014-1.545-.372-3.096-.737-4.646-1.084 1.234-3.488 2.12-7.53 2.12-12.01 0-7.763-4.808-16.92-17.674-16.92-8.962 0-17.463 5.87-23.355 14.67 1.465-5.74 2.437-9.562 2.5-9.818.384-1.5-.24-3.173-2.58-3.173H370.72c-1.88 0-3.208.664-3.744 2.807-.36 1.43-4.896 19.232-9.313 36.565-2.782 10.808-17.174 24.262-35.263 24.262-11.924 0-18.107-6.61-18.107-19.808 3.12 1.242 10.072 2.285 14.88 2.285 21.007 0 33.945-9.17 33.945-27.54 0-9.876-8.67-20.25-25.826-20.25h-.037c-25.407 0-40.97 19.734-43.607 42.108-1.097 9.3-8.947 22.073-17.457 22.073-4.144 0-6.457-2.603-6.457-7.024 0-3.82 2.69-13.155 5.634-24.854.987-3.914 2.485-9.884 4.145-16.5h13.813c2.056 0 3.262-.838 3.73-2.76.66-2.77 1.873-7.6 2.217-8.922.446-1.73-.556-3.043-2.482-3.043h-13.582s6.253-24.95 6.402-25.59c.602-2.538-1.52-4.002-3.742-3.535 0 0-10.498 2.055-12.445 2.46-1.957.396-3.476 1.472-4.183 4.293l-5.56 22.372h-10.906c-2.055 0-3.264.84-3.725 2.758-.665 2.765-1.883 7.602-2.22 8.923-.45 1.73.557 3.043 2.48 3.043h10.696c-.077.307-3.864 14.714-6.926 27.614-1.443 6.204-6.27 20.72-14.18 20.72-4.722 0-6.72-2.383-6.72-7.494 0-8.05 7.924-28.198 7.924-37.34 0-12.214-6.55-19.29-19.974-19.29-8.46 0-17.235 5.463-20.952 10.258 0 0 1.127-3.925 1.513-5.434.413-1.594-.442-3.16-2.535-3.16H175.03c-2.792 0-3.564 1.493-3.974 3.135-.164.658-4.892 19.23-9.432 37.055-3.106 12.207-10.65 22.407-18.717 22.407-4.148 0-5.995-2.603-5.995-7.024 0-3.82 2.468-13.247 5.413-24.946 3.583-14.243 6.744-25.97 7.082-27.342.44-1.756-.344-3.286-2.607-3.286h-13.204c-2.39 0-3.246 1.255-3.75 3 0 0-3.715 14.066-7.65 29.726-2.86 11.366-6.015 22.942-6.015 28.38 0 9.706 4.36 17.022 16.34 17.022 9.247 0 16.566-4.69 22.154-10.663-.822 3.233-1.345 5.28-1.4 5.49-.48 1.847.103 3.482 2.28 3.482h13.512c2.352 0 3.256-.946 3.747-2.997.473-1.957 10.565-41.648 10.565-41.648 2.667-10.663 9.263-17.722 18.545-17.722 4.4 0 8.21 2.914 7.768 8.577-.49 6.23-8.002 28.61-8.002 38.434 0 7.434 2.757 17.053 16.753 17.053 9.54 0 16.565-4.575 21.67-10.477 1.87 6.264 6.825 10.476 15.912 10.476 15.102 0 24.205-8.958 29.553-17.955 4.437 10.453 14.832 17.95 30.074 17.95 15.534 0 27.556-6.55 36.076-15.453l-2.657 10.422c-.484 1.877.333 3.353 2.537 3.353h13.372c1.83 0 3.133-.93 3.61-2.855.234-.944 2.166-8.41 4.895-19.02 5.22-20.303 13.608-41.367 26.21-41.367 4.446 0 6.27 2.485 6.27 6.4 0 1.846-.537 3.44-1 4.296-6.11-1.213-11.025 1.803-11.025 8.326 0 4.25 4.472 8.113 10.508 8.113 4.612 0 8.425-1.13 11.466-3.18 2.84.586 5.89 1.25 8.96 1.95-.47 3.053-.703 6.053-.703 8.898 0 16.296 11.637 30.116 32.495 30.116 16.343 0 27.56-5.978 37.242-13.643 4.654 7.616 16.405 13.77 31.822 13.77 21.13 0 33.113-10.988 33.113-25.51 0-13.145-10.79-17.984-21.92-22.01-9.044-3.27-16.59-5.046-16.59-11.44 0-5.24 4.126-7.636 11.196-7.636 4.586 0 8.03.988 9.87 1.504 1.823 4.565 5.597 9.62 12.04 9.62 5.452 0 7.9-4.312 7.9-8.283 0-11.304-18.83-12.49-18.83-36.732 0-15.075 8.53-27.51 26.197-27.51 12.275 0 20.29 7.783 20.29 20.346 0 10.357-6.282 28.796-6.282 28.796h-10.677c-2.052 0-3.263.84-3.727 2.758-.663 2.765-1.88 7.602-2.22 8.923-.45 1.73.557 3.043 2.482 3.043h10.426s-10.78 39.75-10.78 46.98c0 9.705 5.47 17.018 17.457 17.018 16.954 0 27.547-11.016 32.154-27.036.357-1.24-.345-2.25-1.6-2.25h-6.468c-1.29 0-2.04.738-2.366 2-1.46 5.686-5.082 11.67-12.212 11.67-4.145 0-6.457-2.604-6.457-7.025 0-3.82 2.528-12.76 5.638-24.854 1.478-5.76 4.117-16.502 4.117-16.502zm-133.674-.678c5.995 0 8.843 3.988 8.843 8.74 0 8.04-6.234 12.942-15.986 12.942-3.49 0-8.37-.827-11.25-1.787 1.21-7.393 6.562-19.895 18.394-19.895zm-141.025 0c6.562 0 8.84 3.988 8.84 8.74 0 8.04-6.233 12.942-15.984 12.942-3.492 0-8.37-.827-11.25-1.787 1.204-7.393 5.95-19.895 18.393-19.895zM64.347 0C21.57 0 0 30.67 0 56.246 0 71.732 5.863 85.51 18.438 90.643c2.062.843 3.91.03 4.507-2.254.416-1.58 1.4-5.567 1.84-7.227.602-2.258.368-3.05-1.296-5.018-3.627-4.277-5.944-9.814-5.944-17.657 0-22.754 17.024-43.124 44.33-43.124 24.18 0 37.463 14.774 37.463 34.505 0 25.96-11.49 47.87-28.546 47.87-9.42 0-16.47-7.79-14.21-17.343 2.706-11.406 7.948-23.716 7.948-31.95 0-7.37-3.956-13.516-12.143-13.516-9.63 0-17.365 9.962-17.365 23.306 0 8.5 2.872 14.247 2.872 14.247s-9.854 41.75-11.58 49.063c-3.44 14.562-.518 32.413-.27 34.216.144 1.068 1.517 1.322 2.14.515.887-1.16 12.355-15.317 16.254-29.464 1.104-4.006 6.334-24.75 6.334-24.75 3.128 5.968 12.27 11.224 21.994 11.224 28.944 0 48.58-26.387 48.58-61.707 0-26.707-22.62-51.58-57-51.58z"/></symbol><symbol viewBox="0 0 70 70" id="play"><path d="M29 48.5L47 35 29 21.5v27zM35 5C18.5 5 5 18.5 5 35s13.5 30 30 30 30-13.5 30-30S51.5 5 35 5zm0 54c-13.2 0-24-10.8-24-24s10.8-24 24-24 24 10.8 24 24-10.8 24-24 24z"/></symbol></svg>