<?xml version="1.0" encoding="utf-8"?>
<!-- Generator: Adobe Illustrator 16.0.0, SVG Export Plug-In . SVG Version: 6.00 Build 0)  -->
<!DOCTYPE svg PUBLIC "-//W3C//DTD SVG 1.1//EN" "http://www.w3.org/Graphics/SVG/1.1/DTD/svg11.dtd">
<svg version="1.1" id="Layer_1" xmlns="http://www.w3.org/2000/svg" xmlns:xlink="http://www.w3.org/1999/xlink" x="0px" y="0px"
	 width="20px" height="18px" viewBox="0 0 20 18" enable-background="new 0 0 20 18" xml:space="preserve">
<g>
	<path fill="#666666" d="M18.002,3.999v10.003c0,0.556-0.443,1-1,1H2.998c-0.556,0-1-0.444-1-1V3.999c0-0.556,0.444-1.001,1-1.001
		h14.004C17.559,2.998,18.002,3.443,18.002,3.999z M3.998,6.499C3.998,7.333,4.665,8,5.499,8c0.833,0,1.5-0.667,1.5-1.501
		c0-0.833-0.667-1.5-1.5-1.5C4.665,4.999,3.998,5.666,3.998,6.499z M12,7l-3.667,4.668l-2.334-1.667l-2.001,3.001h12.004L12,7z"/>
</g>
</svg>
