<?xml version="1.0" encoding="utf-8"?>
<!-- Generator: Adobe Illustrator 16.0.4, SVG Export Plug-In . SVG Version: 6.00 Build 0)  -->
<!DOCTYPE svg PUBLIC "-//W3C//DTD SVG 1.1//EN" "http://www.w3.org/Graphics/SVG/1.1/DTD/svg11.dtd">
<svg version="1.1" id="Layer_1" xmlns="http://www.w3.org/2000/svg" xmlns:xlink="http://www.w3.org/1999/xlink" x="0px" y="0px"
	 width="147.228px" height="133.119px" viewBox="0 0 147.228 133.119" enable-background="new 0 0 147.228 133.119"
	 xml:space="preserve">
<g>
	<path fill="#00B3D8" d="M114.066,133.119c17.055,0,33.161-13.738,33.161-32.688c0-17.527-12.791-32.213-29.845-32.213
		c-9.475,0-15.16-3.791-15.16-10.896c0-12.791,14.686-30.319,41.215-42.636L136.805,0C106.96,11.843,76.167,38.847,76.167,85.272
		C76.167,105.642,83.273,133.119,114.066,133.119z M37.899,133.119c17.054,0,33.162-13.738,33.162-32.688
		c0-17.527-12.791-32.213-29.846-32.213c-9.475,0-15.159-3.791-15.159-10.896c0-12.791,14.686-30.319,41.215-42.636L60.638,0
		C30.793,11.843,0,38.847,0,85.272C0,105.642,7.106,133.119,37.899,133.119z"/>
</g>
</svg>
