<?xml version="1.0" encoding="utf-8"?>
<!-- Generator: Adobe Illustrator 16.0.0, SVG Export Plug-In . SVG Version: 6.00 Build 0)  -->
<!DOCTYPE svg PUBLIC "-//W3C//DTD SVG 1.1//EN" "http://www.w3.org/Graphics/SVG/1.1/DTD/svg11.dtd">
<svg version="1.1" id="Layer_1" xmlns="http://www.w3.org/2000/svg" xmlns:xlink="http://www.w3.org/1999/xlink" x="0px" y="0px"
	 width="20px" height="18px" viewBox="0 0 20 18" enable-background="new 0 0 20 18" xml:space="preserve">
<g>
	<path fill="#666666" d="M4.667,4.333c0,0.185-0.148,0.333-0.333,0.333h-2C2.148,4.667,2,4.519,2,4.333v-2C2,2.148,2.148,2,2.333,2
		h2c0.185,0,0.333,0.148,0.333,0.333V4.333z M4.667,10c0,0.185-0.148,0.333-0.333,0.333h-2C2.148,10.333,2,10.185,2,10V8
		c0-0.185,0.148-0.333,0.333-0.333h2c0.185,0,0.333,0.148,0.333,0.333V10z M4.667,15.667C4.667,15.852,4.519,16,4.333,16h-2
		C2.148,16,2,15.852,2,15.667v-2c0-0.185,0.148-0.333,0.333-0.333h2c0.185,0,0.333,0.148,0.333,0.333V15.667z M18,4.333
		c0,0.185-0.148,0.333-0.333,0.333H6.333C6.148,4.667,6,4.519,6,4.333v-2C6,2.148,6.148,2,6.333,2h11.333
		C17.852,2,18,2.148,18,2.333V4.333z M18,10c0,0.185-0.148,0.333-0.333,0.333H6.333C6.148,10.333,6,10.185,6,10V8
		c0-0.185,0.148-0.333,0.333-0.333h11.333C17.852,7.667,18,7.815,18,8V10z M18,15.667C18,15.852,17.852,16,17.667,16H6.333
		C6.148,16,6,15.852,6,15.667v-2c0-0.185,0.148-0.333,0.333-0.333h11.333c0.186,0,0.333,0.148,0.333,0.333V15.667z"/>
</g>
</svg>
