<?xml version="1.0" encoding="utf-8"?>
<!-- Generator: Adobe Illustrator 16.0.0, SVG Export Plug-In . SVG Version: 6.00 Build 0)  -->
<!DOCTYPE svg PUBLIC "-//W3C//DTD SVG 1.1//EN" "http://www.w3.org/Graphics/SVG/1.1/DTD/svg11.dtd">
<svg version="1.1" id="Layer_1" xmlns="http://www.w3.org/2000/svg" xmlns:xlink="http://www.w3.org/1999/xlink" x="0px" y="0px"
	 width="15px" height="11px" viewBox="0 0 15 11" enable-background="new 0 0 15 11" xml:space="preserve">
<g>
	<path fill="#E71F3D" d="M0.791,9.874c-0.016,0-0.048,0-0.064,0C0.597,9.841,0.5,9.728,0.5,9.598c0.146-3.954,2.625-6.433,7-6.433
		V0.54c0-0.114,0.065-0.211,0.162-0.259C7.759,0.231,7.889,0.248,7.97,0.312l6.417,4.958C14.452,5.32,14.5,5.401,14.5,5.498
		s-0.049,0.178-0.113,0.227L7.97,10.684c-0.048,0.048-0.113,0.064-0.178,0.064c-0.048,0-0.081-0.017-0.129-0.032
		C7.565,10.667,7.5,10.57,7.5,10.457V7.832c-2.917,0-5.396,0.583-6.45,1.896C0.953,9.825,0.888,9.874,0.791,9.874z"/>
</g>
</svg>
