<?xml version="1.0" encoding="utf-8"?>
<!-- Generator: Adobe Illustrator 16.0.0, SVG Export Plug-In . SVG Version: 6.00 Build 0)  -->
<!DOCTYPE svg PUBLIC "-//W3C//DTD SVG 1.1//EN" "http://www.w3.org/Graphics/SVG/1.1/DTD/svg11.dtd">
<svg version="1.1" id="Layer_1" xmlns="http://www.w3.org/2000/svg" xmlns:xlink="http://www.w3.org/1999/xlink" x="0px" y="0px"
	 width="100px" height="100px" viewBox="0 0 100 100" enable-background="new 0 0 100 100" xml:space="preserve">
<g>
	<path opacity="0.4" enable-background="new    " d="M50,93.268c-23.71,0-43-19.289-43-43c0-23.71,19.29-43,43-43s43,19.29,43,43
		C93,73.979,73.71,93.268,50,93.268z"/>
	<g opacity="0.8">
		<g>
			<polygon fill="#FFFFFF" points="40.259,27.768 40.259,72.769 71.9,50.269 			"/>
		</g>
	</g>
</g>
<path opacity="0.8" fill="#FFFFFF" enable-background="new    " d="M50,0.268c-27.614,0-50,22.386-50,50c0,27.615,22.386,50,50,50
	s50-22.385,50-50C100,22.654,77.614,0.268,50,0.268z M50,93.268c-23.71,0-43-19.289-43-43c0-23.71,19.29-43,43-43s43,19.29,43,43
	C93,73.979,73.71,93.268,50,93.268z"/>
</svg>
