<?xml version="1.0" encoding="utf-8"?>
<!-- Generator: Adobe Illustrator 16.0.4, SVG Export Plug-In . SVG Version: 6.00 Build 0)  -->
<!DOCTYPE svg PUBLIC "-//W3C//DTD SVG 1.1//EN" "http://www.w3.org/Graphics/SVG/1.1/DTD/svg11.dtd">
<svg version="1.1" id="Layer_1" xmlns="http://www.w3.org/2000/svg" xmlns:xlink="http://www.w3.org/1999/xlink" x="0px" y="0px"
	 width="40px" height="40px" viewBox="0 0 40 40" enable-background="new 0 0 40 40" xml:space="preserve">
<g>
	<path opacity="0.4" enable-background="new    " d="M20,37.2c-9.484,0-17.2-7.716-17.2-17.2S10.516,2.8,20,2.8S37.2,10.516,37.2,20
		S29.484,37.2,20,37.2z"/>
	<g opacity="0.8">
		<g>
			<polygon fill="#FFFFFF" points="16.104,11 16.104,29 28.76,20 			"/>
		</g>
	</g>
</g>
<path fill="#FFFFFF" enable-background="new    " d="M20,0C8.955,0,0,8.954,0,20s8.955,20,20,20s20-8.954,20-20S31.045,0,20,0z
	 M20,37.2c-9.484,0-17.2-7.716-17.2-17.2S10.516,2.8,20,2.8S37.2,10.516,37.2,20S29.484,37.2,20,37.2z"/>
</svg>
