<svg xmlns="http://www.w3.org/2000/svg" width="14" height="14" viewBox="0 0 14 14">
  <path fill="#FFFFFF" fill-rule="evenodd" d="M198.500232,621 C196.083692,621 195,622.156853 195,624.736535 L195,628.676756 C195,631.255449 196,632 198.500232,632 L199.168045,632 C199.57744,632.897785 199.497784,633.498953 199.323652,634.307761 C199.289381,634.468929 199.281972,634.652839 199.327357,634.791266 C199.42739,635.092839 199.778432,635.17194 200.650943,634.302817 C200.906583,634.047716 201.557724,633.320975 202.257029,632 L205.499768,632 C208,632 209,631.255449 209,628.676756 L209,624.736535 C209,622.156853 207.916308,621 205.499768,621 L198.500232,621 L198.500232,621 Z" transform="translate(-195 -621)"/>
</svg>
