<!-- "display: none" ensures the SVG doesn't take up space even though it's not being shown because of the use of symbol -->
<svg xmlns="http://www.w3.org/2000/svg" style="display:none;">
  
  <symbol id="icon-pagination-arrow" viewBox="0 0 40 40">
    <title>Pagination Arrow</title>
    <path d="M29.116 19.93c0-.22-.087-.43-.243-.586l-15.6-15.602c-.156-.155-.367-.242-.586-.242s-.43.087-.585.242l-.975.975c-.323.323-.323.847 0 1.17L25.24 20 11.127 34.113c-.155.155-.242.366-.242.585s.087.43.242.585l.975.975c.162.162.373.242.585.242s.423-.08.585-.242l15.6-15.6c.176-.176.253-.41.238-.64.004-.03.006-.06.006-.09z"/>
  </symbol>

  <symbol id="icon-rating-star" viewBox="0 0 18 18">
    <title>Rating Star</title>
    <path d="M13.52 11.75l1.105 5.814c.02.146-.042.29-.167.375-.062.04-.146.06-.208.06s-.146-.02-.208-.06L9 14.687l-5.042 3.25c-.125.084-.292.084-.417 0-.124-.082-.187-.23-.166-.375l1.104-5.812L.104 7.397C0 7.292-.02 7.126.02 6.98c.063-.146.21-.23.355-.23h5.75l2.52-6.5C8.71.104 8.856 0 9 0s.292.104.354.25l2.52 6.5h5.75c.147 0 .293.083.355.23.04.145.02.312-.084.416L13.52 11.75z"/>
  </symbol>

  <symbol id="icon-pinterest" viewBox="0 0 30 30">
    <title>Pinterest</title>
    <path d="M15.478 4.5c-5.682 0-8.528 4.112-8.528 7.537 0 2.06.773 3.907 2.44 4.615.284.103.528 0 .6-.318.05-.194.193-.728.244-.963.07-.297.04-.39-.173-.655-.477-.584-.792-1.313-.792-2.39 0-3.035 2.267-5.763 5.906-5.763 3.202 0 4.96 1.968 4.96 4.625 0 3.477-1.514 6.42-3.78 6.42-1.262 0-2.196-1.046-1.912-2.338.366-1.53 1.067-3.18 1.067-4.277 0-.995-.53-1.805-1.617-1.805-1.28 0-2.288 1.313-2.288 3.117 0 1.14.356 1.918.356 1.918s-1.3 5.588-1.514 6.563c-.457 1.95-.07 4.35-.05 4.595.03.123.192.174.294.052.122-.145 1.636-2.042 2.145-3.938.163-.534.844-3.302.844-3.302.425.8 1.635 1.477 2.937 1.477 3.832 0 6.433-3.528 6.433-8.267 0-3.57-2.988-6.903-7.572-6.903z"/>
  </symbol>
  
  <symbol id="icon-facebook" viewBox="0 0 30 30">
    <title>Facebook</title>
    <path d="M17.587 8.65H19.8V5.53h-3.133l-.506.017c-1.75.016-2.618.993-2.618.993-1.373 1.217-1.174 2.588-1.174 2.588v2.637H10.2v3.426h2.168v9.734h4.28V15.21h2.89l.254-3.46h-3.144V9.71c0-1.03.94-1.06.94-1.06z"/>
  </symbol>
  
  <symbol id="icon-twitter" viewBox="0 0 30 30">
    <title>Twitter</title>
    <path d="M27.5 7.836c-.928.405-1.904.68-2.954.798 1.074-.62 1.88-1.61 2.26-2.777-.98.572-2.09.99-3.236 1.216-.965-.953-2.296-1.573-3.773-1.573-2.832 0-5.114 2.23-5.114 4.994 0 .394.024.8.11 1.157-4.248-.226-8.008-2.11-10.56-5.137-.427.74-.695 1.503-.695 2.432 0 1.716.903 3.243 2.295 4.148-.842-.023-1.624-.25-2.32-.62v.06c0 2.432 1.77 4.46 4.115 4.91-.44.12-.903.18-1.367.18-.316 0-.634-.035-.95-.095.634 1.98 2.55 3.457 4.772 3.48-1.733 1.36-3.967 2.372-6.36 2.372-.415 0-.818-.024-1.22-.083 2.257 1.418 4.98 2.038 7.873 2.038 9.423 0 14.575-7.63 14.575-14.244v-.655c.988-.704 1.855-1.574 2.55-2.6z"/>
  </symbol>

  <symbol id="icon-email" viewBox="0 0 30 30">
    <title>Email</title>
    <path d="M23.434 7.23H6.566c-1.462 0-2.65 1.188-2.65 2.65v10.24c0 1.463 1.188 2.65 2.65 2.65h16.867c1.46 0 2.65-1.187 2.65-2.65V9.88c0-1.462-1.188-2.65-2.65-2.65zm1.133 13.294l-5.157-5.157 5.23-3.92v8.673c0 .142-.028.277-.073.404zm-18-11.85h16.866c.584 0 1.072.418 1.182.97-.207-.022-.424.03-.604.164l-9.132 6.85-9.13-6.85c-.112-.083-.236-.135-.364-.157.106-.555.595-.975 1.182-.975zM5.38 20.335c-.013-.07-.02-.14-.02-.214v-8.493l4.985 3.74-4.965 4.966zm1.184.99c-.142 0-.277-.024-.402-.07l5.157-5.157 3.053 2.29c.15.112.328.168.506.168s.355-.056.505-.17l3.053-2.288 5.208 5.208c-.07.012-.14.02-.212.02H6.566z"/>
  </symbol>
  
  <symbol id="icon-print" viewBox="0 0 30 30">
    <title>Print</title>
    <path d="M23.712 9.068h-2.625V3H8.913v6.068H6.287c-1.476 0-2.677 1.2-2.677 2.677v9.003c0 1.476 1.2 2.677 2.677 2.677h1.91V27H21.8v-3.574h1.91c1.476 0 2.677-1.2 2.677-2.677v-9.004c0-1.476-1.202-2.678-2.678-2.678zM10.345 4.432h9.31v4.636h-9.31V4.432zm9.74 20.85H9.915V18.12h10.17v7.16zm4.872-4.533c0 .687-.558 1.244-1.245 1.244h-1.91V16.4H8.197v5.594h-1.91c-.686 0-1.243-.558-1.243-1.245v-9.004c0-.688.558-1.245 1.244-1.245h17.425c.688 0 1.245.56 1.245 1.246v9.003z"/>
  </symbol>
  
  <symbol id="icon-send-to-phone" viewBox="0 0 53 49">
    <title>Send To Phone</title>
    <path d="M46.322 0H28.514c-3.684 0-6.678 2.995-6.678 6.682V42.32c0 3.686 2.994 6.68 6.678 6.68h17.81C50.005 49 53 46.006 53 42.32V6.682C53 2.995 50.006 0 46.322 0zM41.87 44.545h-8.904v-2.227h8.904v2.227zm7.234-6.682H25.73V6.683h23.374v31.18zM8.904 19.165v-2.85c0-.285.11-.57.326-.79.217-.215.502-.324.787-.324s.57.11.787.326l7.004 6.914-7.004 6.912c-.217.22-.502.327-.787.327s-.57-.11-.787-.328c-.217-.217-.326-.503-.326-.787v-2.77c-3.06.074-6.405.63-8.904 4.44V29.12c0-5.158 3.896-9.4 8.904-9.955z"/>
  </symbol>
  
  <symbol id="fw-logo" viewBox="0 0 332 44">
    <title>Food and Wine</title>
    <path d="M24.68 18.938v7.99H9.573V43.18H0V1.822h27.28V9.81H9.393v9.128h15.29zM245.46 1.822h9.395V43.18h-9.395V1.822zM272.23 1.822l16.014 26.128V1.822h8.972v41.355h-8.78L271.88 17.05v26.128h-8.974V1.822h9.323zM328.722 18.49v7.393h-15.35v9.308h18.608v7.99h-28V1.823h27.34V9.81h-17.948v8.68h15.35zM48.55 8.99c6.084 0 9.097 5.29 9.097 13.51 0 8.22-3.013 13.51-9.097 13.51-6.083 0-9.097-5.29-9.097-13.51 0-8.22 3.014-13.51 9.097-13.51M29.76 22.5c0 11.726 5.554 21.5 18.79 21.5 13.24 0 18.79-9.774 18.79-21.5C67.34 10.772 61.79 1 48.55 1c-13.236 0-18.79 9.77-18.79 21.497M122.314 9.81h2.04c8.624 0 12.41 3.223 12.41 12.69 0 9.47-3.786 12.69-12.41 12.69h-2.04V9.81zM112.92 43.18h10.392c14.225 0 22.965-5.978 22.965-20.68 0-14.698-8.74-20.676-22.965-20.676H112.92v41.356zM195.69 1.822l6.886 27.8 8.08-27.8h7.274l7.776 27.8 6.638-27.8h8.98l-11.24 41.355h-8.024l-8.192-25.9-8.07 25.9h-8.333L186.532 1.822h9.16zM90.07 8.99c6.083 0 9.097 5.29 9.097 13.51 0 8.22-3.014 13.51-9.097 13.51-6.084 0-9.097-5.29-9.097-13.51 0-8.22 3.013-13.51 9.097-13.51M71.28 22.5c0 11.726 5.554 21.5 18.79 21.5s18.792-9.774 18.792-21.5C108.862 10.772 103.307 1 90.07 1S71.28 10.772 71.28 22.5M165.57 41.532c3.657 0 6.412-1.684 7.596-2.853-2.453-2.044-6.65-6.066-7.768-7.258-1.12-1.19-3.875-4.233-4.844-5.64-1.85 1.257-3.42 3.406-3.42 6.81 0 5.322 3.786 8.94 8.435 8.94M164.083 44c-8.373 0-11.212-5.702-11.212-9.404 0-4.98 3.83-8.578 6.8-10.173-1.7-2.3-2.13-4.043-2.15-5.958-.023-3.36 3.227-7.83 9.855-7.83 2.152 0 4.046.427 5.21.98.622.276.645.575.645 1.084 0 1.34-.26 4.532-.388 5.17-.107.64-.258.723-.474.723-.236 0-.28-.17-.28-.808 0-1.107-.28-2.488-1.29-3.596-.905-1-2.39-1.895-4.54-1.895-2.197 0-5.037 1.403-5.037 5.213 0 3.66 3.014 6.745 6.973 11.043 1.463 1.62 6.757 6.427 7.854 7.364 1.034-1.406 2.132-4.215 2.132-6.81 0-.64-.173-1.446-.817-2.022-.56-.532-1.464-.66-2.11-.66-.26 0-.516-.084-.516-.317 0-.28.343-.362.687-.362 1.033 0 2.756.04 5.166.3.73.082 1.12.38 1.12.85 0 3.36-2.066 7.488-4.24 10.062 2.862 2.362 4.776 3.513 5.96 4.192 1.378.81 3.66 1.576 4.865 1.576.387 0 .602.04.602.338 0 .215-.345.343-1.01.343h-3.767c-4.046 0-5.338-.382-9.556-3.638-1.207 1.127-4.35 4.235-10.483 4.235"/>
  </symbol>
  
  <symbol id="icon-menu" width="29" height="19" viewBox="0 0 29 19">
    <title>Menu</title>
    <path fill-rule="evenodd" clip-rule="evenodd" d="M0 16h29v3H0v-3zM29 8v3H0V8M29 0v3H0V0"/>
  </symbol>

<symbol id="icon-instagram" viewBox="3.419 4.831 49.576 49.575">
  <title>Instagram</title>
  <path d="M43.414 4.83H13c-5.283 0-9.58 4.298-9.58 9.58V44.827c0 5.283 4.297 9.58 9.58 9.58h30.415c5.283 0 9.58-4.297 9.58-9.58V14.41c0-5.283-4.298-9.58-9.58-9.58zm2.748 5.714l1.096-.004v8.403l-8.375.026-.028-8.402 7.307-.024zM21.132 24.53c1.588-2.197 4.163-3.638 7.075-3.638s5.488 1.44 7.074 3.638c1.034 1.434 1.653 3.188 1.653 5.088 0 4.812-3.918 8.725-8.728 8.725-4.812 0-8.726-3.913-8.726-8.725 0-1.9.618-3.654 1.65-5.088zm27.032 20.295c0 2.62-2.13 4.75-4.75 4.75H13c-2.62 0-4.75-2.13-4.75-4.75V24.53h7.4c-.64 1.572-1 3.29-1 5.088 0 7.473 6.08 13.557 13.557 13.557s13.556-6.084 13.556-13.557c0-1.8-.36-3.516-1-5.088h7.4v20.295z"/>
</symbol>

</svg>