<?xml version="1.0" encoding="utf-8"?>
<!-- Generator: Adobe Illustrator 16.0.0, SVG Export Plug-In . SVG Version: 6.00 Build 0)  -->
<!DOCTYPE svg PUBLIC "-//W3C//DTD SVG 1.1//EN" "http://www.w3.org/Graphics/SVG/1.1/DTD/svg11.dtd">
<svg version="1.1" id="Layer_1" xmlns="http://www.w3.org/2000/svg" xmlns:xlink="http://www.w3.org/1999/xlink" x="0px" y="0px"
	 width="70px" height="70px" viewBox="0 0 70 70" enable-background="new 0 0 70 70" xml:space="preserve">
<path d="M29,48.5L47,35L29,21.5V48.5L29,48.5z M35,5C18.5,5,5,18.5,5,35s13.5,30,30,30s30-13.5,30-30S51.5,5,35,5L35,5z M35,59
	c-13.199,0-24-10.799-24-24c0-13.199,10.801-24,24-24c13.201,0,24,10.801,24,24C59,48.201,48.201,59,35,59L35,59z"/>
</svg>
