<?xml version="1.0" encoding="utf-8"?><!DOCTYPE svg PUBLIC "-//W3C//DTD SVG 1.1//EN" "http://www.w3.org/Graphics/SVG/1.1/DTD/svg11.dtd"><svg width="248" height="184" viewBox="0 0 248 184" xmlns="http://www.w3.org/2000/svg" xmlns:xlink="http://www.w3.org/1999/xlink"><svg width="13" height="13" viewBox="0 0 13 13" id="button-arrow" x="110" y="133.119"><path fill="#E71F3D" d="M13 6.5L6.5 13l-.885-.877 5-5H0V5.877h10.616l-5.002-5L6.5 0 13 6.5z"/></svg><svg width="20" height="18" viewBox="0 0 20 18" id="image" x="212.233" y="100"><path fill="#666" d="M18.002 4V14c0 .556-.443 1-1 1H2.998c-.556 0-1-.444-1-1V4c0-.557.444-1.002 1-1.002h14.004c.557 0 1 .445 1 1zM3.998 6.5c0 .833.667 1.5 1.5 1.5C6.333 8 7 7.333 7 6.5 7 5.665 6.333 5 5.5 5 4.666 5 4 5.665 4 6.5zM12 7l-3.667 4.668L6 10l-2.002 3.002h12.004L12 7z"/></svg><svg width="147.228" height="133.119" viewBox="0 0 147.228 133.119" id="large-quote"><path fill="#00B3D8" d="M114.066 133.12c17.055 0 33.16-13.74 33.16-32.69 0-17.526-12.79-32.212-29.844-32.212-9.475 0-15.16-3.79-15.16-10.896 0-12.79 14.686-30.32 41.215-42.636L136.805 0C106.96 11.843 76.167 38.847 76.167 85.272c0 20.37 7.106 47.847 37.9 47.847zm-76.167 0c17.053 0 33.16-13.74 33.16-32.69 0-17.526-12.79-32.212-29.845-32.212-9.475 0-15.16-3.79-15.16-10.896 0-12.79 14.687-30.32 41.216-42.636L60.64 0C30.793 11.843 0 38.847 0 85.272c0 20.37 7.106 47.847 37.9 47.847z"/></svg><svg width="20" height="18" viewBox="0 0 20 18" id="list" x="192.233" y="100"><path fill="#666" d="M4.667 4.333c0 .185-.148.333-.333.333h-2C2.148 4.666 2 4.52 2 4.333v-2C2 2.148 2.148 2 2.333 2h2c.185 0 .333.148.333.333v2zm0 5.667c0 .185-.148.333-.333.333h-2C2.148 10.333 2 10.185 2 10V8c0-.185.148-.333.333-.333h2c.185 0 .333.148.333.333v2zm0 5.667c0 .185-.148.333-.334.333h-2C2.148 16 2 15.852 2 15.667v-2c0-.185.148-.333.333-.333h2c.185 0 .333.148.333.333v2zM18 4.333c0 .185-.148.333-.333.333H6.333C6.148 4.666 6 4.52 6 4.333v-2C6 2.148 6.148 2 6.333 2h11.333c.186 0 .334.148.334.333v2zM18 10c0 .185-.148.333-.333.333H6.333C6.148 10.333 6 10.185 6 10V8c0-.185.148-.333.333-.333h11.333c.186 0 .334.148.334.333v2zm0 5.667c0 .185-.148.333-.333.333H6.333C6.148 16 6 15.852 6 15.667v-2c0-.185.148-.333.333-.333h11.333c.186 0 .333.148.333.333v2z"/></svg><svg width="45.005" height="29.998" viewBox="0 0 45.005 29.998" id="list-heading-arrow" x="147.228" y="100"><path fill="#00B3D8" d="M0 2.825v11.04c0 .524.52 1.576 1.04 1.97L21.142 29.5c1.038.79 2.334.526 3.112 0L43.45 15.18c.646-.394 1.555-1.313 1.555-2.365V2.433C45.005.2 43.06-.59 40.985.46L22.958 9.002 3.89.854C1.82-.064 0 .59 0 2.824"/></svg><svg width="13" height="13" viewBox="0 0 13 13" id="plus-sign" x="232.233" y="100"><title>Title Copy</title><path d="M12.094 5.344H6.75V0H5.344v5.344H0V6.75h5.344v5.344H6.75V6.75h5.344V5.344z" fill="#E71F3D" fill-rule="evenodd"/></svg><svg viewBox="0 0 18 18" width="18" height="18" id="rating-star-hover" x="108" y="148.119"><path fill="#c41a34" d="M13.52 11.75l1.105 5.814c.02.146-.042.29-.167.375-.062.04-.146.06-.208.06s-.146-.02-.208-.06L9 14.686l-5.042 3.25c-.125.084-.292.084-.417 0-.123-.082-.186-.23-.165-.375L4.48 11.75.103 7.397C0 7.292-.02 7.127.02 6.98c.063-.146.21-.23.355-.23h5.75l2.52-6.5C8.71.104 8.855 0 9 0s.292.104.354.25l2.52 6.5h5.75c.147 0 .293.083.355.23.04.145.02.312-.085.416L13.52 11.75z"/></svg><svg viewBox="0 0 18 18" width="18" height="18" id="rating-star-off" x="126" y="148.119"><path fill="#f6a9b5" d="M13.52 11.75l1.105 5.814c.02.146-.042.29-.167.375-.062.04-.146.06-.208.06s-.146-.02-.208-.06L9 14.686l-5.042 3.25c-.125.084-.292.084-.417 0-.123-.082-.186-.23-.165-.375L4.48 11.75.103 7.397C0 7.292-.02 7.127.02 6.98c.063-.146.21-.23.355-.23h5.75l2.52-6.5C8.71.104 8.855 0 9 0s.292.104.354.25l2.52 6.5h5.75c.147 0 .293.083.355.23.04.145.02.312-.085.416L13.52 11.75z"/></svg><svg viewBox="0 0 18 18" width="18" height="18" id="rating-star-on" x="90" y="148.119"><path fill="#e71f3d" d="M13.52 11.75l1.105 5.814c.02.146-.042.29-.167.375-.062.04-.146.06-.208.06s-.146-.02-.208-.06L9 14.686l-5.042 3.25c-.125.084-.292.084-.417 0-.123-.082-.186-.23-.165-.375L4.48 11.75.103 7.397C0 7.292-.02 7.127.02 6.98c.063-.146.21-.23.355-.23h5.75l2.52-6.5C8.71.104 8.855 0 9 0s.292.104.354.25l2.52 6.5h5.75c.147 0 .293.083.355.23.04.145.02.312-.085.416L13.52 11.75z"/></svg><svg width="15" height="11" viewBox="0 0 15 11" id="share-arrow" x="192.233" y="118"><path fill="#E71F3D" d="M.79 9.874H.728C.597 9.84.5 9.728.5 9.598c.146-3.954 2.625-6.433 7-6.433V.54c0-.114.065-.21.162-.26.097-.05.227-.032.308.032l6.417 4.958c.065.05.113.13.113.228s-.05.178-.113.227l-6.417 4.96c-.048.047-.113.063-.178.063-.048 0-.08-.017-.13-.032-.097-.05-.162-.146-.162-.26V7.833c-2.917 0-5.396.583-6.45 1.896-.097.097-.162.146-.26.146z"/></svg><svg width="20" height="15" viewBox="0 0 20 15" id="share-hallow-arrow" x="90" y="133.119"><title>Series Dek</title><path d="M1.675 12.606c1.29-1.608 4.327-2.322 7.9-2.322V13.5c0 .138.08.257.198.317.06.02.1.04.16.04.078 0 .157-.02.217-.08l7.86-6.073c.08-.06.14-.16.14-.278 0-.12-.06-.22-.14-.278l-7.86-6.074c-.1-.08-.258-.1-.377-.04-.12.06-.2.18-.2.318v3.216c-5.358 0-8.394 3.036-8.573 7.88 0 .158.12.297.278.337h.08c.118 0 .198-.06.317-.18z" stroke="#C4C2C3" stroke-width="2" fill="#FFF" fill-rule="evenodd"/></svg><svg width="50" height="50" viewBox="0 0 50 50" id="slideshow-icon" y="133.119"><path fill="#FFF" d="M12.953 36.988H37.22V13H12.953v23.988zm2.54-21.476H34.68V34.48H15.494V15.51zM8.985 33.97h2.54V16.017h-2.54v17.95zm29.666 0h2.538V16.017H38.65v17.95zm-33.636-2.5h2.538V18.517H5.014v12.95zm37.45-12.952v12.95H45v-12.95h-2.537z"/></svg><svg width="100" height="100" viewBox="0 0 100 100" id="video-play-button" x="147.228"><path opacity=".4" d="M50 93.268c-23.71 0-43-19.29-43-43s19.29-43 43-43 43 19.29 43 43-19.29 43-43 43z"/><path fill="#FFF" d="M40.26 27.768v45l31.64-22.5" opacity=".8"/><path opacity=".8" fill="#FFF" d="M50 .268c-27.614 0-50 22.386-50 50 0 27.615 22.386 50 50 50s50-22.385 50-50c0-27.614-22.386-50-50-50zm0 93c-23.71 0-43-19.29-43-43s19.29-43 43-43 43 19.29 43 43-19.29 43-43 43z"/></svg><svg width="40" height="40" viewBox="0 0 40 40" id="video-play-button-sm" x="50" y="133.119"><path opacity=".4" d="M20 37.2c-9.484 0-17.2-7.716-17.2-17.2S10.516 2.8 20 2.8 37.2 10.516 37.2 20 29.484 37.2 20 37.2z"/><path fill="#FFF" d="M16.104 11v18l12.656-9" opacity=".8"/><path fill="#FFF" d="M20 0C8.955 0 0 8.954 0 20s8.955 20 20 20 20-8.954 20-20S31.045 0 20 0zm0 37.2c-9.484 0-17.2-7.716-17.2-17.2S10.516 2.8 20 2.8 37.2 10.516 37.2 20 29.484 37.2 20 37.2z"/></svg></svg>